<?xml version="1.0" standalone="no"?>
<!DOCTYPE svg PUBLIC "-//W3C//DTD SVG 20010904//EN"
 "http://www.w3.org/TR/2001/REC-SVG-20010904/DTD/svg10.dtd">
<svg version="1.0" xmlns="http://www.w3.org/2000/svg"
 width="113.000000pt" height="113.000000pt" viewBox="0 0 113.000000 113.000000"
 preserveAspectRatio="xMidYMid meet">
<metadata>
Created by potrace 1.11, written by Peter Selinger 2001-2013
</metadata>
<g transform="translate(0.000000,113.000000) scale(0.100000,-0.100000)"
fill="#000000" stroke="none">
<path d="M10 565 l0 -565 560 0 560 0 0 565 0 565 -560 0 -560 0 0 -565z m393
318 c45 -26 93 -103 107 -170 19 -90 9 -257 -19 -321 -77 -174 -296 -176 -373
-4 -26 58 -38 180 -27 276 14 129 65 210 147 237 40 13 128 3 165 -18z m627
-14 c0 -21 -22 -67 -70 -143 -38 -62 -70 -116 -70 -119 0 -4 25 -7 55 -7 52 0
55 -1 55 -25 0 -25 -1 -25 -78 -25 l-77 0 -67 -107 -67 -108 169 -3 170 -2 0
-30 0 -30 -215 0 -215 0 0 30 c0 19 24 67 70 140 l69 110 -44 0 c-41 0 -45 2
-45 25 0 24 3 25 58 25 44 0 63 5 74 18 17 19 138 210 138 218 0 2 -67 4 -150
4 l-150 0 0 30 0 30 195 0 195 0 0 -31z"/>
<path d="M276 849 c-77 -21 -110 -101 -110 -264 1 -132 15 -188 59 -232 28
-28 40 -33 80 -33 40 0 52 5 80 33 18 18 38 51 44 73 40 148 11 372 -52 405
-36 20 -71 26 -101 18z"/>
</g>
</svg>
